<svg id="Line" height="512" viewBox="0 0 64 64" width="512" xmlns="http://www.w3.org/2000/svg"><path d="m22 59.5h32a3 3 0 0 0 3-3v-21.59l5.71-5.7a1 1 0 0 0 -.71-1.71h-40a3 3 0 0 0 -3 3v26a3 3 0 0 0 3 3zm23.5-18.5a2.5 2.5 0 1 1 -2.5 2.5 2.5 2.5 0 0 1 2.5-2.5zm-7.5 0a2.5 2.5 0 1 1 -2.5 2.5 2.5 2.5 0 0 1 2.5-2.5zm-7.5 0a2.5 2.5 0 1 1 -2.5 2.5 2.5 2.5 0 0 1 2.5-2.5z" fill="#c4a2fc"/><path d="m48.18 4.5h-44.18a3 3 0 0 0 -2.11 5.12l8.29 8.29v21.59a3 3 0 0 0 3 3h35a3 3 0 0 0 3-3v-32a3 3 0 0 0 -3-3zm1 35a1 1 0 0 1 -1 1h-35a1 1 0 0 1 -1-1v-22a1 1 0 0 0 -.29-.71l-8.59-8.58a1 1 0 0 1 .7-1.71h44.18a1 1 0 0 1 1 1zm-4-23a1 1 0 0 1 -1 1h-27a1 1 0 0 1 0-2h27a1 1 0 0 1 1 1zm0 7a1 1 0 0 1 -1 1h-27a1 1 0 0 1 0-2h27a1 1 0 0 1 1 1zm0 7a1 1 0 0 1 -1 1h-27a1 1 0 0 1 0-2h27a1 1 0 0 1 1 1z" fill="#151a6a"/></svg>