<?xml version="1.0" encoding="iso-8859-1"?>
<!-- Generator: Adobe Illustrator 19.0.0, SVG Export Plug-In . SVG Version: 6.00 Build 0)  -->
<svg version="1.1" id="Capa_1" xmlns="http://www.w3.org/2000/svg" xmlns:xlink="http://www.w3.org/1999/xlink" x="0px" y="0px"
	 viewBox="0 0 512 512" style="enable-background:new 0 0 512 512;" xml:space="preserve">
<g>
	<path style="fill:#1E90FF;" d="M316.235,198.475H195.765c-16.64,0-30.118-13.478-30.118-30.118s13.478-30.118,30.118-30.118
		h120.471c16.64,0,30.118,13.478,30.118,30.118S332.875,198.475,316.235,198.475z"/>
	<path style="fill:#1E90FF;" d="M316.235,288.828H195.765c-16.64,0-30.118-13.478-30.118-30.118s13.478-30.118,30.118-30.118
		h120.471c16.64,0,30.118,13.478,30.118,30.118S332.875,288.828,316.235,288.828z"/>
</g>
<path style="fill:#166CBF;" d="M30.118,509.289C13.478,509.289,0,495.812,0,479.172V93.064C0,43.159,40.448,2.711,90.353,2.711
	h331.294C471.552,2.711,512,43.159,512,93.064v240.941c0,49.905-40.448,90.353-90.353,90.353H183.868
	c-31.112-0.045-61.109,11.625-84.028,32.678l-1.205,1.205l-48.489,43.369C44.634,506.534,37.512,509.274,30.118,509.289z
	 M90.353,62.946c-16.64,0-30.118,13.478-30.118,30.118v318.494c33.973-30.494,77.99-47.39,123.633-47.435h237.779
	c16.64,0,30.118-13.478,30.118-30.118V93.064c0-16.64-13.478-30.118-30.118-30.118C421.647,62.946,90.353,62.946,90.353,62.946z"/>
<g>
</g>
<g>
</g>
<g>
</g>
<g>
</g>
<g>
</g>
<g>
</g>
<g>
</g>
<g>
</g>
<g>
</g>
<g>
</g>
<g>
</g>
<g>
</g>
<g>
</g>
<g>
</g>
<g>
</g>
</svg>
